<?xml version="1.0" encoding="UTF-8"?>
<svg id="Layer_2" data-name="Layer 2" xmlns="http://www.w3.org/2000/svg" viewBox="0 0 152.31 220">
  <defs>
    <style>
      .cls-1 {
        fill: #fff;
        stroke-width: 0px;
      }
    </style>
  </defs>
  <g id="Layer_1-2" data-name="Layer 1">
    <g id="Fire_2" data-name="Fire 2">
      <path id="Icon_ionic-ios-flame" data-name="Icon ionic-ios-flame" class="cls-1" d="M57.17,0C72.51,71.18-.53,69.75,0,141.41c.42,58.7,62.62,78.59,76.42,78.59s71.29-12.48,75.68-78.59C155.85,85.14,108.89,31.41,57.17,0ZM96.46,187.58c-5.39,20.57-34.9,20.62-40.4.05-.82-3.02-1.25-6.13-1.27-9.26,0-21.68,21.47-46.7,21.47-46.7,0,0,21.36,25.01,21.36,46.7.04,3.11-.35,6.2-1.17,9.2Z"/>
      <path id="Icon_ionic-ios-flame-2" data-name="Icon ionic-ios-flame-2" class="cls-1" d="M57.17,0C72.51,71.18-.53,69.75,0,141.41c.42,58.7,62.62,78.59,76.42,78.59s71.29-12.48,75.68-78.59C155.85,85.14,108.89,31.41,57.17,0ZM96.46,187.58c-5.39,20.57-34.9,20.62-40.4.05-.82-3.02-1.25-6.13-1.27-9.26,0-21.68,21.47-46.7,21.47-46.7,0,0,21.36,25.01,21.36,46.7.04,3.11-.35,6.2-1.17,9.2Z"/>
    </g>
  </g>
</svg>